<svg width="22" height="16" viewBox="0 0 22 16" fill="none" xmlns="http://www.w3.org/2000/svg">
<path d="M21.4843 3.01701L8.62463 15.4788C8.28013 15.8125 7.81294 16 7.32581 16C6.83868 16 6.37149 15.8125 6.02698 15.4788L0.515696 10.138C0.181054 9.80225 -0.00411623 9.35256 6.94464e-05 8.88579C0.00425512 8.41901 0.197462 7.9725 0.538074 7.64243C0.878687 7.31235 1.33945 7.12513 1.82113 7.12107C2.30281 7.11701 2.76687 7.29645 3.11335 7.62074L7.32581 11.7029L18.8867 0.499737C19.2331 0.17545 19.6972 -0.00398886 20.1789 6.72982e-05C20.6605 0.00412346 21.1213 0.19135 21.4619 0.521423C21.8025 0.851496 21.9957 1.29801 21.9999 1.76478C22.0041 2.23156 21.8189 2.68125 21.4843 3.01701Z" fill="white"/>
</svg>
