<svg width="40" height="40" viewBox="0 0 40 40" fill="none" xmlns="http://www.w3.org/2000/svg">
<rect x="0.75" y="0.75" width="38.5" height="38.5" rx="1.25" stroke="#494F53" stroke-width="1.5"/>
<path d="M12.7417 27.2584C12.9583 27.4751 13.175 27.5834 13.5 27.5834C13.825 27.5834 14.0417 27.4751 14.2583 27.2584L20 21.5167L25.7417 27.2584C25.9583 27.4751 26.2833 27.5834 26.5 27.5834C26.7167 27.5834 27.0417 27.4751 27.2583 27.2584C27.6917 26.8251 27.6917 26.1751 27.2583 25.7417L21.5167 20.0001L27.2583 14.2584C27.6917 13.8251 27.6917 13.1751 27.2583 12.7417C26.825 12.3084 26.175 12.3084 25.7417 12.7417L20 18.4834L14.2583 12.7417C13.825 12.3084 13.175 12.3084 12.7417 12.7417C12.3083 13.1751 12.3083 13.8251 12.7417 14.2584L18.4833 20.0001L12.7417 25.7417C12.3083 26.1751 12.3083 26.8251 12.7417 27.2584Z" fill="#494F53"/>
</svg>
