<?xml version="1.0" encoding="UTF-8"?>
<svg version="1.1" viewBox="0 0 2048 1627" width="1280" height="1280" xmlns="http://www.w3.org/2000/svg">
<path transform="translate(903,354)" d="m0 0h17l19 3 16 6 13 7 12 9 11 9 7 8 10 16 6 15 4 17 1 7v18l-4 20-6 17-9 15-8 10-7 8-13 10-8 5-4-1-16-16-9-11-7-9-9-10v-2l13-5 11-9 8-11 3-9 1-13-3-14-7-12-8-8-12-6-5-1h-15l-11 3-10 6-9 9-6 12-2 7v17l7 13 9 11 16 17 14 15 7 8 13 14 7 8 16 17 7 8 22 24 10 11 7 8 3 3v2l-19 9-30 8-9 2h-7l-11-12-7-8-6-6v-2l-5-1-7 7 1 4 10 10 8 7 9 10 8 11 7 7 7 8 16 17 7 8 12 13 9 9 9 13 8 20 4 18 1 18-3 19-6 18-7 14-12 16-12 12-15 10-13 6-15 4-15 2h-19l-27-4-16-7-11-7-19-19-10-14-8-17-5-16-2-14v-13l3-20 6-16 8-16 8-10 12-12 8-7 11-7 11 11 7 8 21 21 5 7-6 3-8 3-13 11-6 10-3 8-1 4v16l4 10 6 9 9 8 10 5 13 3 12-1 12-5 12-11 7-9 3-8 1-18-7-14-7-9-11-13-9-11-28-28-7-8-9-9-7-8-12-13-4-4-8 7-7 8-13 12-15 14-13 9-14 7-21 5-14 2h-10l-17-2-20-4-16-8-13-9-7-7-12-16-9-16-7-21-3-17v-11l3-20 5-15 8-16 9-12 13-14 13-9 16-8 17-5 13-2h21l19 4 16 6 15 9 13 11 10 9 6 9 3 4v5l-11 11-8 7-13 12-14 13-3-2-4-11-7-10-4-5-10-6-12-4h-12l-11 3-9 5-9 8-6 10-3 9-1 5v10l3 10 7 12 7 7 16 8 9 2h10l14-7 10-8 15-14 13-10 7-7 8-7 11-10 8-7 8-8 6-7 8-7 9-8-6-8-7-7-6-5-9-12-12-13-9-13-8-16-5-16-2-14v-18l3-17 6-17 8-15 9-12 11-10 11-9 19-10 17-5zm-158 322-2 2 5-1zm213 114m1 1v5l2 1-1-6z" fill="#DEB9F3"/>
<path transform="translate(1127,354)" d="m0 0h18l18 3 16 6 15 8 10 9 10 8 7 8 8 13 6 13 5 16 2 14v17l-3 17-6 17-7 13-10 14-11 12-8 11-15 14-4 4v2l8 7 8 8 2 1v2l3 1 7 8 9 9 8 7 13 12 11 10 10 8 13 12 13 9 12 6 15-1 9-3 11-6 7-7 6-10 3-9v-17l-3-10-6-10-7-7-14-7-8-2h-13l-11 4-10 6-8 10-5 10-3 8-4-2-8-8-8-7-12-11-10-9-7-7 2-6 9-12 15-14 13-9 16-8 13-4 17-3h20l20 4 16 6 14 8 13 11 10 11 7 10 8 16 5 16 2 11 1 14-2 17-5 19-8 16-7 11-9 12-7 7-13 9-14 7-23 5-18 2h-9l-24-4-13-4-16-9-10-8-7-7-8-7-16-15-7-8-4-2-16 17-7 8-11 12-14 15-25 25-8 11-10 12-6 10-3 8v10l3 13 7 11 10 9 9 5 12 3 13-1 13-5 9-7 7-8 5-10 1-5v-15l-3-10-5-9-8-9-10-6-11-4 1-4h2l2-4 10-11 8-7 21-21 5 2 10 7 19 19 9 14 6 13 4 13 2 13v23l-3 16-6 16-7 13-9 12-11 12-7 7-15 9-14 5-17 3-10 1h-19l-19-3-14-5-15-8-11-9-13-13-10-15-8-18-4-15-2-12v-13l3-19 6-18 8-15 8-10 3-1 2-4 8-8 7-8 14-15 12-13 14-16 7-9 10-11 8-7 7-8-8-8-4 2-9 9-7 8-9 10-11-1-33-8-18-8-3-2 1-4 10-10 7-8 14-15 11-12 9-10 7-8 12-12 9-11 8-8 7-8 16-17 14-15 9-13 4-9v-14l-2-9-6-11-9-10-10-6-11-3h-15l-10 3-10 7-8 9-5 11-2 8v13l4 12 6 9 9 8 10 6 6 2-2 4-8 10-8 11-15 16-9 9-12-7-10-8-7-8-8-9-8-13-6-14-4-13-2-10v-25l3-15 6-16 7-13 10-14 11-10 11-8 14-8 12-5 16-4z" fill="#DEB9F3"/>
<path transform="translate(903,354)" d="m0 0h17l19 3 16 6 13 7 12 9 11 9 7 8 10 16 6 15 4 17 1 7v18l-4 20-6 17-9 15-8 10-7 8-13 10-8 5-4-1-16-16-9-11-7-9-9-10v-2l13-5 11-9 8-11 3-9 1-13-3-14-7-12-8-8-12-6-5-1h-15l-11 3-10 6-9 9-6 12-2 7-1 9-4-2-3-9-4-8-2-11v-10l4-18 7-16 12-14 10-10 8-6 4-4z" fill="#A75AD7"/>
<path transform="translate(1127,354)" d="m0 0h18l5 2 1 3 5 2 12 11 10 11 8 13 5 12 2 10v17l-3 15-2-3-4 13-3 4-3-17-6-11-9-10-10-6-11-3h-15l-10 3-10 7-8 9-5 11-2 8v13l4 12 6 9 9 8 10 6 6 2-2 4-8 10-8 11-15 16-9 9-12-7-10-8-7-8-8-9-8-13-6-14-4-13-2-10v-25l3-15 6-16 7-13 10-14 11-10 11-8 14-8 12-5 16-4z" fill="#A75AD7"/>
<path transform="translate(734,522)" d="m0 0h21l19 4 16 6 15 9 13 11 10 9 6 9 3 4v5l-11 11-8 7-13 12-14 13-3-2-4-11-7-10-4-5-10-6-12-4h-12l-11 3-9 5-9 8-6 10-3 9-1 5v10l3 10 7 12 7 7 16 8 16 3-3 2-16 4-3 2-15 3h-11l-15-4-14-7-10-9-5-4-7-8-8-9-4-2-1-8v-11l3-20 5-15 8-16 9-12 13-14 13-9 16-8 17-5z" fill="#A75AD7"/>
<path transform="translate(1294,522)" d="m0 0h20l20 4 16 6 14 8 13 11 10 11 7 10 8 16 5 16 2 11 1 14-2 17-2 3-1-2-8 7-16 16-11 7-11 5-9 2h-11l-9-3-8-7-9-1 4-3 13-7 7-7 6-10 3-9v-17l-3-10-6-10-7-7-14-7-8-2h-13l-11 4-10 6-8 10-5 10-3 8-4-2-8-8-8-7-12-11-10-9-7-7 2-6 9-12 15-14 13-9 16-8 13-4z" fill="#A75AD7"/>
<path transform="translate(860,702)" d="m0 0 7 6 15 16 18 18 5 7-6 3-8 3-13 11-6 10-3 8-1 4v16l4 10 6 9 9 8 10 5 13 3 12-1 12-5 12-11 7-9h2v7l5 1 2 4 1 8-1 7v15l-6 12-9 12-7 8-9 11-9 3h-19l-27-4-16-7-11-7-19-19-10-14-8-17-5-16-2-14v-13l3-20 6-16 8-16 8-10 12-12 8-7z" fill="#A75AD7"/>
<path transform="translate(1186,703)" d="m0 0 5 2 10 7 19 19 9 14 6 13 4 13 2 13v23l-3 16-6 16-7 13-9 12-11 12-7 7-15 9-14 5-17 3-10 1h-19l-6-2-1-3-4-2-9-10-7-7-9-14-2-5v-16l2-6 2-12h2v-4l4 1-1-5h2l6 8 8 7 9 5 12 3 13-1 13-5 9-7 7-8 5-10 1-5v-15l-3-10-5-9-8-9-10-6-11-4 1-4h2l2-4 10-11 8-7z" fill="#A75AD7"/>
<path transform="translate(80 1e3)" d="m0 0h61l9 3 6 4 8 9 4 11v10l-4 11-4 5h-2l3 6 6 9 1 3v11l-4 10-9 10-8 5-13 2h-53l-1-1zm23 22v21l1 1h33l5-3 3-7-2-8-3-3-3-1zm1 44-1 1v19l1 1h31l5-2 4-5v-9l-5-4z" fill="#DFBAF4"/>
<path transform="translate(1517 1e3)" d="m0 0h25l7 10 14 27 8 14 10 16 1-67h23l1 1v107l-2 1h-23l-7-10-15-27-12-21-6-9v66l-1 1h-22l-1-1z" fill="#DFBAF4"/>
<path transform="translate(912 1e3)" d="m0 0h19l12 5 8 6 7 8 5 10 2 7v72l-1 1h-22v-22h-42v21l-1 1h-21l-1-1v-72l4-12 8-11 7-6 12-6zm7 22-9 3-8 9-2 9v23h41l1-8v-17l-3-9-5-6-6-3z" fill="#DEB9F3"/>
<path transform="translate(361 1e3)" d="m0 0h19l10 3 9 6 8 10 5 10 2 7v72l-1 1h-20l-1-21-43-1v22h-23v-73l4-12 7-10 9-8 11-5zm8 22-8 2-8 7-3 5-1 4v26h43l1-22-2-9-4-6-5-4-4-2z" fill="#DEB9F3"/>
<path transform="translate(1013 1e3)" d="m0 0h41l14 4 10 6 10 9 7 11 5 14 1 4v14l-4 12-7 13-12 12-14 7-15 3h-36l-1-3v-105zm21 22v64l1 1h13l10-3 9-6 7-8 3-7v-15l-5-12-8-8-8-4-9-2z" fill="#DEB9F3"/>
<path transform="translate(671,999)" d="m0 0h5l-2 4-13 20-9 12-8 11 7 14 12 20 11 24 2 4-1 1h-23l-6-10-13-24-4-7-4 2-8 9-4 7-1 22-2 1h-21l-1-1v-108h24v38l-1 14 5-5 8-10 14-19 12-16 2-2z" fill="#DEB9F3"/>
<path transform="translate(1141 1e3)" d="m0 0h76v21l-1 1h-51v22h35v22l-11 1h-24v20h52v21l-2 1h-73l-1-1z" fill="#DEB9F3"/>
<path transform="translate(1771 1e3)" d="m0 0h75v21l-1 1h-51v22h34l1 1v21l-3 1h-32l1 19 51 1v21l-3 1h-72z" fill="#DEB8F3"/>
<path transform="translate(503,998)" d="m0 0h16l13 3 14 7 3 3-2 6-6 9-3 5-5-2-8-5-6-2h-16l-9 4-6 5-7 13-2 14 2 8 4 8 7 8 10 5 3 1h13l10-4 7-5 4 1 7 11 3 5-2 4-10 6-15 5-14 1-13-2-13-7-10-8-8-10-7-14-2-8v-16l4-13 7-13 12-12 14-8z" fill="#DEB9F3"/>
<path transform="translate(1928,998)" d="m0 0h17l12 3 14 7 3 3-1 5-6 10-5 5-11-7-7-2h-16l-10 5-7 8-4 8-2 7v11l3 9 8 11 11 6 4 1h12l11-4 7-5 4 1 8 13 1 5-8 6-8 4-10 3-15 1-12-2-12-6-9-7-5-5-6-8-6-12-2-8v-17l3-12 7-13 8-9 12-9 12-5z" fill="#DFBAF4"/>
<path transform="translate(1331 1e3)" d="m0 0h77l1 3-1 19h-54l1 21 30 1 1 1v20l-1 1-9 1h-22v42h-22l-1-1z" fill="#DEB9F3"/>
<path transform="translate(1645 1e3)" d="m0 0h88v21l-1 1-32 1v85l-1 1h-22v-87h-32z" fill="#DEB9F3"/>
<path transform="translate(213 1e3)" d="m0 0h21v86l56 1v21l-3 1h-73l-1-1z" fill="#DFBAF4"/>
<path transform="translate(811 1e3)" d="m0 0h23v70l-3 11-6 11-8 8-14 7-9 2h-15l-2-2v-23l6 1h12l6-3 5-5 3-6 1-70z" fill="#DEB9F3"/>
<path transform="translate(1448 1e3)" d="m0 0h21v109h-21l-1-2v-106z" fill="#DFBAF4"/>
</svg>
