<svg width="830" height="133" viewBox="0 0 930 133" fill="none" xmlns="http://www.w3.org/2000/svg">
<rect x="0.4" y="0.4" width="929.2" height="132.2" rx="3.6" fill="#FCFAFA"/>
<rect x="0.4" y="0.4" width="929.2" height="132.2" rx="3.6" stroke="#DCE1E6" stroke-width="0.8"/>
<path d="M105.744 45.22C104.952 45.22 104.178 45.121 103.423 44.923C102.668 44.725 101.978 44.428 101.355 44.032C100.732 43.636 100.218 43.141 99.815 42.547C99.419 41.953 99.1807 41.2563 99.1 40.457H102.389C102.499 40.941 102.708 41.348 103.016 41.678C103.331 42.008 103.735 42.261 104.226 42.437C104.725 42.613 105.293 42.701 105.931 42.701C106.437 42.701 106.917 42.6277 107.372 42.481C107.827 42.3343 108.197 42.1107 108.483 41.81C108.769 41.5093 108.912 41.1317 108.912 40.677C108.912 40.1343 108.714 39.7273 108.318 39.456C107.922 39.1773 107.383 38.9573 106.701 38.796L103.72 38.147C102.877 37.971 102.14 37.6997 101.509 37.333C100.886 36.959 100.405 36.475 100.068 35.881C99.7307 35.2797 99.562 34.55 99.562 33.692C99.562 32.702 99.8333 31.8477 100.376 31.129C100.926 30.4103 101.67 29.8603 102.609 29.479C103.555 29.0903 104.615 28.896 105.788 28.896C107.115 28.896 108.234 29.1123 109.143 29.545C110.06 29.9703 110.76 30.5497 111.244 31.283C111.728 32.009 111.974 32.8193 111.981 33.714H108.769C108.71 33.164 108.542 32.724 108.263 32.394C107.984 32.0567 107.625 31.8147 107.185 31.668C106.752 31.514 106.257 31.437 105.7 31.437C104.739 31.437 104.039 31.6313 103.599 32.02C103.159 32.4087 102.939 32.8597 102.939 33.373C102.939 33.857 103.104 34.2493 103.434 34.55C103.771 34.8433 104.31 35.067 105.051 35.221L107.812 35.815C108.839 36.013 109.671 36.3283 110.309 36.761C110.947 37.1863 111.413 37.7033 111.706 38.312C111.999 38.9207 112.146 39.6027 112.146 40.358C112.146 41.3187 111.871 42.1657 111.321 42.899C110.778 43.625 110.027 44.1933 109.066 44.604C108.105 45.0147 106.998 45.22 105.744 45.22ZM119.191 45.121C118.186 45.121 117.409 44.9927 116.859 44.736C116.316 44.4793 115.939 44.12 115.726 43.658C115.521 43.196 115.418 42.6607 115.418 42.052V35.859H113.57V33.626H115.517L116.331 30.194H118.619V33.615H121.149V35.859H118.619L118.641 41.92C118.641 42.1987 118.674 42.4077 118.74 42.547C118.813 42.679 118.923 42.767 119.07 42.811C119.224 42.8477 119.418 42.866 119.653 42.866H121.182V44.846C121.028 44.912 120.797 44.9743 120.489 45.033C120.181 45.0917 119.748 45.121 119.191 45.121ZM126.793 45.22C126.074 45.22 125.422 45.0843 124.835 44.813C124.256 44.5417 123.797 44.1493 123.46 43.636C123.123 43.1153 122.954 42.4847 122.954 41.744C122.954 40.4973 123.42 39.5513 124.351 38.906C125.282 38.2533 126.753 37.916 128.762 37.894L130.192 37.872V37.19C130.192 36.6693 130.038 36.2697 129.73 35.991C129.429 35.705 128.956 35.5657 128.311 35.573C127.849 35.5803 127.405 35.6903 126.98 35.903C126.562 36.1157 126.272 36.486 126.111 37.014H123.438C123.482 36.1927 123.72 35.518 124.153 34.99C124.593 34.4547 125.183 34.0587 125.924 33.802C126.665 33.538 127.512 33.406 128.465 33.406C129.624 33.406 130.555 33.5527 131.259 33.846C131.963 34.132 132.473 34.5463 132.788 35.089C133.111 35.6243 133.272 36.2623 133.272 37.003V45H130.588L130.324 43.042C129.935 43.8633 129.448 44.4317 128.861 44.747C128.282 45.0623 127.592 45.22 126.793 45.22ZM127.882 43.108C128.168 43.108 128.447 43.0567 128.718 42.954C128.997 42.844 129.246 42.701 129.466 42.525C129.686 42.3417 129.858 42.1363 129.983 41.909C130.115 41.6817 130.185 41.447 130.192 41.205V39.522L129.037 39.544C128.502 39.5513 128.003 39.6173 127.541 39.742C127.079 39.8593 126.705 40.0537 126.419 40.325C126.14 40.5963 126.001 40.963 126.001 41.425C126.001 41.953 126.181 42.3673 126.54 42.668C126.907 42.9613 127.354 43.108 127.882 43.108ZM135.877 45V33.626H138.968V36.321C139.151 35.7417 139.408 35.2357 139.738 34.803C140.075 34.363 140.482 34.022 140.959 33.78C141.436 33.5307 141.975 33.406 142.576 33.406C142.679 33.406 142.774 33.4133 142.862 33.428C142.957 33.4353 143.027 33.45 143.071 33.472V36.53C143.005 36.5007 142.924 36.4823 142.829 36.475C142.741 36.4677 142.66 36.4603 142.587 36.453C141.956 36.4017 141.417 36.42 140.97 36.508C140.523 36.596 140.16 36.7463 139.881 36.959C139.602 37.1717 139.401 37.432 139.276 37.74C139.151 38.048 139.089 38.3927 139.089 38.774V45H135.877ZM149.742 45.121C148.737 45.121 147.96 44.9927 147.41 44.736C146.867 44.4793 146.49 44.12 146.277 43.658C146.072 43.196 145.969 42.6607 145.969 42.052V35.859H144.121V33.626H146.068L146.882 30.194H149.17V33.615H151.7V35.859H149.17L149.192 41.92C149.192 42.1987 149.225 42.4077 149.291 42.547C149.364 42.679 149.474 42.767 149.621 42.811C149.775 42.8477 149.969 42.866 150.204 42.866H151.733V44.846C151.579 44.912 151.348 44.9743 151.04 45.033C150.732 45.0917 150.299 45.121 149.742 45.121ZM159.358 45V29.094H162.691V36.376L168.488 29.094H172.173L167.344 35.254L172.756 45H169.258L165.045 37.597L162.691 40.435V45H159.358ZM179.377 45V38.301L173.855 29.094H177.331L180.994 35.54L184.613 29.094H188.122L182.589 38.312V45H179.377ZM195.636 45.22C194.155 45.22 192.875 44.8753 191.797 44.186C190.719 43.4967 189.887 42.5287 189.3 41.282C188.721 40.0353 188.431 38.5797 188.431 36.915C188.431 35.243 188.721 33.8093 189.3 32.614C189.879 31.4113 190.708 30.4873 191.786 29.842C192.864 29.1967 194.147 28.874 195.636 28.874C196.831 28.874 197.895 29.116 198.826 29.6C199.765 30.0767 200.52 30.7293 201.092 31.558C201.671 32.3867 202.012 33.3217 202.115 34.363H198.749C198.646 33.813 198.459 33.3253 198.188 32.9C197.917 32.4673 197.561 32.13 197.121 31.888C196.681 31.6387 196.153 31.514 195.537 31.514C194.796 31.514 194.158 31.6937 193.623 32.053C193.088 32.4123 192.677 32.9917 192.391 33.791C192.105 34.5903 191.962 35.6463 191.962 36.959C191.962 38.939 192.277 40.3727 192.908 41.26C193.546 42.14 194.422 42.58 195.537 42.58C196.153 42.58 196.681 42.4407 197.121 42.162C197.561 41.876 197.917 41.502 198.188 41.04C198.459 40.5707 198.646 40.0573 198.749 39.5H202.115C202.02 40.2553 201.836 40.9777 201.565 41.667C201.294 42.349 200.909 42.9577 200.41 43.493C199.911 44.0283 199.27 44.45 198.485 44.758C197.7 45.066 196.751 45.22 195.636 45.22ZM203.419 45.407L208.985 29.094H211.218L205.663 45.407H203.419ZM212.15 45L217.837 29.094H221.236L226.923 45H223.722L222.424 41.315H216.693L215.373 45H212.15ZM217.419 38.51H221.643L219.542 32.185L217.419 38.51ZM229.311 45V29.094H233.975L237.616 40.435L241.29 29.094H245.943V45H242.698V32.834L238.87 45H236.351L232.545 32.889V45H229.311ZM249.507 45V29.094H252.741V42.283H259.649V45H249.507ZM270.938 45L265.438 29.094H268.507L272.764 41.271L276.999 29.094H280.079L274.579 45H270.938ZM285.864 45.22C284.734 45.22 283.741 44.9853 282.883 44.516C282.032 44.0393 281.368 43.3683 280.892 42.503C280.415 41.6377 280.177 40.6183 280.177 39.445C280.177 38.3083 280.393 37.2853 280.826 36.376C281.266 35.4593 281.896 34.737 282.718 34.209C283.539 33.6737 284.533 33.406 285.699 33.406C286.857 33.406 287.829 33.6517 288.614 34.143C289.398 34.627 289.992 35.3053 290.396 36.178C290.799 37.0433 291.001 38.0443 291.001 39.181V40.05H283.356C283.356 40.6293 283.451 41.1353 283.642 41.568C283.832 41.9933 284.107 42.3233 284.467 42.558C284.833 42.7853 285.273 42.899 285.787 42.899C286.337 42.899 286.817 42.7817 287.228 42.547C287.638 42.3123 287.928 41.9273 288.097 41.392H290.99C290.858 42.1987 290.535 42.888 290.022 43.46C289.508 44.032 288.885 44.4683 288.152 44.769C287.418 45.0697 286.656 45.22 285.864 45.22ZM283.356 38.136H287.998C287.998 37.6813 287.91 37.2633 287.734 36.882C287.565 36.5007 287.308 36.2 286.964 35.98C286.626 35.76 286.201 35.65 285.688 35.65C285.196 35.65 284.775 35.771 284.423 36.013C284.078 36.2477 283.81 36.5557 283.62 36.937C283.436 37.3183 283.348 37.718 283.356 38.136ZM293.314 45V33.626H296.405V36.321C296.589 35.7417 296.845 35.2357 297.175 34.803C297.513 34.363 297.92 34.022 298.396 33.78C298.873 33.5307 299.412 33.406 300.013 33.406C300.116 33.406 300.211 33.4133 300.299 33.428C300.395 33.4353 300.464 33.45 300.508 33.472V36.53C300.442 36.5007 300.362 36.4823 300.266 36.475C300.178 36.4677 300.098 36.4603 300.024 36.453C299.394 36.4017 298.855 36.42 298.407 36.508C297.96 36.596 297.597 36.7463 297.318 36.959C297.04 37.1717 296.838 37.432 296.713 37.74C296.589 38.048 296.526 38.3927 296.526 38.774V45H293.314ZM302.414 45V33.626H305.483V45H302.414ZM302.381 31.998V29.105H305.505V31.998H302.381ZM309.522 45V35.859H307.421V33.626H309.522V31.987C309.522 31.0703 309.793 30.359 310.336 29.853C310.879 29.347 311.641 29.094 312.624 29.094H315.231L315.253 31.228H313.746C313.343 31.228 313.064 31.3307 312.91 31.536C312.756 31.734 312.679 32.064 312.679 32.526V33.626H315.143V35.859H312.745V45H309.522ZM317.002 45V33.626H320.071V45H317.002ZM316.969 31.998V29.105H320.093V31.998H316.969ZM327.784 45.22C326.728 45.22 325.786 44.9853 324.957 44.516C324.128 44.0467 323.476 43.3757 322.999 42.503C322.53 41.623 322.295 40.5743 322.295 39.357C322.295 38.1837 322.522 37.1497 322.977 36.255C323.432 35.3603 324.07 34.6637 324.891 34.165C325.72 33.659 326.684 33.406 327.784 33.406C328.737 33.406 329.559 33.6003 330.248 33.989C330.945 34.3777 331.491 34.902 331.887 35.562C332.29 36.222 332.521 36.959 332.58 37.773H329.907C329.856 37.4723 329.749 37.1753 329.588 36.882C329.427 36.5813 329.199 36.3357 328.906 36.145C328.613 35.947 328.246 35.848 327.806 35.848C327.058 35.848 326.449 36.1377 325.98 36.717C325.518 37.289 325.287 38.1617 325.287 39.335C325.287 40.4423 325.514 41.3223 325.969 41.975C326.424 42.6203 327.058 42.943 327.872 42.943C328.305 42.943 328.664 42.8367 328.95 42.624C329.243 42.4113 329.471 42.1583 329.632 41.865C329.793 41.5643 329.896 41.2857 329.94 41.029H332.547C332.496 41.8137 332.268 42.525 331.865 43.163C331.462 43.7937 330.912 44.296 330.215 44.67C329.526 45.0367 328.715 45.22 327.784 45.22ZM338.178 45.22C337.459 45.22 336.806 45.0843 336.22 44.813C335.64 44.5417 335.182 44.1493 334.845 43.636C334.507 43.1153 334.339 42.4847 334.339 41.744C334.339 40.4973 334.804 39.5513 335.736 38.906C336.667 38.2533 338.137 37.916 340.147 37.894L341.577 37.872V37.19C341.577 36.6693 341.423 36.2697 341.115 35.991C340.814 35.705 340.341 35.5657 339.696 35.573C339.234 35.5803 338.79 35.6903 338.365 35.903C337.947 36.1157 337.657 36.486 337.496 37.014H334.823C334.867 36.1927 335.105 35.518 335.538 34.99C335.978 34.4547 336.568 34.0587 337.309 33.802C338.049 33.538 338.896 33.406 339.85 33.406C341.008 33.406 341.94 33.5527 342.644 33.846C343.348 34.132 343.857 34.5463 344.173 35.089C344.495 35.6243 344.657 36.2623 344.657 37.003V45H341.973L341.709 43.042C341.32 43.8633 340.832 44.4317 340.246 44.747C339.666 45.0623 338.977 45.22 338.178 45.22ZM339.267 43.108C339.553 43.108 339.831 43.0567 340.103 42.954C340.381 42.844 340.631 42.701 340.851 42.525C341.071 42.3417 341.243 42.1363 341.368 41.909C341.5 41.6817 341.569 41.447 341.577 41.205V39.522L340.422 39.544C339.886 39.5513 339.388 39.6173 338.926 39.742C338.464 39.8593 338.09 40.0537 337.804 40.325C337.525 40.5963 337.386 40.963 337.386 41.425C337.386 41.953 337.565 42.3673 337.925 42.668C338.291 42.9613 338.739 43.108 339.267 43.108ZM351.76 45.121C350.755 45.121 349.978 44.9927 349.428 44.736C348.885 44.4793 348.507 44.12 348.295 43.658C348.089 43.196 347.987 42.6607 347.987 42.052V35.859H346.139V33.626H348.086L348.9 30.194H351.188V33.615H353.718V35.859H351.188L351.21 41.92C351.21 42.1987 351.243 42.4077 351.309 42.547C351.382 42.679 351.492 42.767 351.639 42.811C351.793 42.8477 351.987 42.866 352.222 42.866H353.751V44.846C353.597 44.912 353.366 44.9743 353.058 45.033C352.75 45.0917 352.317 45.121 351.76 45.121ZM356.039 45V33.626H359.108V45H356.039ZM356.006 31.998V29.105H359.13V31.998H356.006ZM366.832 45.22C365.717 45.22 364.746 44.9817 363.917 44.505C363.096 44.0283 362.458 43.3537 362.003 42.481C361.556 41.6083 361.332 40.5743 361.332 39.379C361.332 38.1837 361.556 37.1387 362.003 36.244C362.458 35.3493 363.096 34.6527 363.917 34.154C364.746 33.6553 365.721 33.406 366.843 33.406C367.965 33.406 368.937 33.6517 369.758 34.143C370.579 34.627 371.214 35.3163 371.661 36.211C372.108 37.1057 372.332 38.1617 372.332 39.379C372.332 40.523 372.112 41.535 371.672 42.415C371.239 43.2877 370.612 43.9733 369.791 44.472C368.977 44.9707 367.991 45.22 366.832 45.22ZM366.843 42.833C367.408 42.833 367.862 42.668 368.207 42.338C368.552 42.008 368.801 41.5753 368.955 41.04C369.109 40.4973 369.186 39.907 369.186 39.269C369.186 38.6677 369.116 38.0993 368.977 37.564C368.838 37.0287 368.596 36.596 368.251 36.266C367.906 35.936 367.437 35.771 366.843 35.771C366.278 35.771 365.82 35.9287 365.468 36.244C365.123 36.552 364.87 36.9737 364.709 37.509C364.548 38.037 364.467 38.6237 364.467 39.269C364.467 39.863 364.54 40.435 364.687 40.985C364.834 41.5277 365.079 41.9713 365.424 42.316C365.769 42.6607 366.242 42.833 366.843 42.833ZM374.525 45V33.626H377.682V35.232C377.858 34.9533 378.086 34.6857 378.364 34.429C378.65 34.165 379.01 33.9487 379.442 33.78C379.875 33.6113 380.388 33.527 380.982 33.527C381.679 33.527 382.328 33.6627 382.929 33.934C383.538 34.2053 384.029 34.6343 384.403 35.221C384.777 35.8003 384.964 36.5593 384.964 37.498V45H381.752V37.894C381.752 37.278 381.569 36.816 381.202 36.508C380.836 36.2 380.388 36.046 379.86 36.046C379.508 36.046 379.167 36.1083 378.837 36.233C378.515 36.3577 378.251 36.5447 378.045 36.794C377.84 37.0433 377.737 37.3513 377.737 37.718V45H374.525Z" fill="#494F53"/>
<path d="M103.832 76.16C102.819 76.16 101.941 75.9307 101.2 75.472C100.464 75.008 99.8933 74.336 99.488 73.456C99.088 72.576 98.888 71.504 98.888 70.24C98.888 68.9653 99.088 67.8853 99.488 67C99.8933 66.1093 100.467 65.432 101.208 64.968C101.949 64.504 102.824 64.272 103.832 64.272C104.84 64.272 105.709 64.504 106.44 64.968C107.176 65.432 107.741 66.1067 108.136 66.992C108.536 67.8773 108.736 68.96 108.736 70.24C108.736 71.504 108.539 72.576 108.144 73.456C107.749 74.336 107.184 75.008 106.448 75.472C105.717 75.9307 104.845 76.16 103.832 76.16ZM103.832 75.04C104.589 75.04 105.229 74.8693 105.752 74.528C106.28 74.1867 106.68 73.6613 106.952 72.952C107.224 72.2427 107.36 71.3413 107.36 70.248C107.36 69.1387 107.221 68.2267 106.944 67.512C106.667 66.792 106.264 66.2587 105.736 65.912C105.213 65.56 104.579 65.384 103.832 65.384C103.085 65.384 102.445 65.56 101.912 65.912C101.384 66.264 100.979 66.8 100.696 67.52C100.413 68.24 100.272 69.1493 100.272 70.248C100.272 71.3467 100.413 72.2507 100.696 72.96C100.979 73.664 101.384 74.1867 101.912 74.528C102.445 74.8693 103.085 75.04 103.832 75.04ZM110.827 78.576V67.728H112.067L112.091 69.24C112.171 69.0747 112.283 68.896 112.427 68.704C112.576 68.512 112.763 68.3307 112.987 68.16C113.211 67.984 113.475 67.8427 113.779 67.736C114.088 67.624 114.443 67.568 114.843 67.568C115.515 67.568 116.107 67.7173 116.619 68.016C117.131 68.3147 117.528 68.7733 117.811 69.392C118.099 70.0107 118.243 70.7947 118.243 71.744C118.243 72.672 118.107 73.4667 117.835 74.128C117.568 74.784 117.176 75.288 116.659 75.64C116.142 75.9867 115.51 76.16 114.763 76.16C114.363 76.16 114.014 76.104 113.715 75.992C113.416 75.88 113.16 75.7333 112.947 75.552C112.734 75.3707 112.558 75.184 112.419 74.992C112.28 74.7947 112.168 74.608 112.083 74.432V78.576H110.827ZM114.555 75.16C115.286 75.16 115.878 74.8853 116.331 74.336C116.79 73.7867 117.019 72.9387 117.019 71.792C117.019 70.8107 116.811 70.0293 116.395 69.448C115.984 68.8613 115.371 68.568 114.555 68.568C113.744 68.568 113.126 68.864 112.699 69.456C112.278 70.048 112.067 70.8267 112.067 71.792C112.067 72.4213 112.16 72.992 112.347 73.504C112.539 74.0107 112.819 74.4133 113.187 74.712C113.555 75.0107 114.011 75.16 114.555 75.16ZM123.735 76.16C122.978 76.16 122.309 75.9947 121.727 75.664C121.151 75.328 120.701 74.8453 120.375 74.216C120.05 73.5867 119.887 72.8293 119.887 71.944C119.887 71.064 120.034 70.296 120.327 69.64C120.621 68.9787 121.047 68.4693 121.607 68.112C122.167 67.7493 122.842 67.568 123.631 67.568C124.394 67.568 125.039 67.7333 125.567 68.064C126.095 68.3893 126.498 68.856 126.775 69.464C127.053 70.072 127.191 70.7973 127.191 71.64V72.152H121.167C121.162 72.7067 121.25 73.2107 121.431 73.664C121.618 74.1173 121.901 74.48 122.279 74.752C122.658 75.024 123.135 75.16 123.711 75.16C124.277 75.16 124.762 75.0293 125.167 74.768C125.573 74.5013 125.826 74.1253 125.927 73.64H127.127C127.026 74.1947 126.805 74.6587 126.463 75.032C126.122 75.4053 125.711 75.688 125.231 75.88C124.757 76.0667 124.258 76.16 123.735 76.16ZM121.175 71.264H125.975C125.975 70.752 125.89 70.2907 125.719 69.88C125.549 69.4693 125.287 69.144 124.935 68.904C124.589 68.664 124.149 68.544 123.615 68.544C123.055 68.544 122.594 68.68 122.231 68.952C121.869 69.2187 121.599 69.56 121.423 69.976C121.253 70.392 121.17 70.8213 121.175 71.264ZM129.343 76V67.728H130.543V68.936C130.681 68.696 130.871 68.4747 131.111 68.272C131.356 68.0693 131.652 67.9067 131.999 67.784C132.351 67.6613 132.745 67.6 133.183 67.6C133.716 67.6 134.201 67.7067 134.639 67.92C135.081 68.128 135.433 68.4533 135.695 68.896C135.956 69.3387 136.087 69.9067 136.087 70.6V76H134.839V70.712C134.839 70.008 134.66 69.488 134.303 69.152C133.945 68.816 133.473 68.648 132.887 68.648C132.487 68.648 132.111 68.712 131.759 68.84C131.407 68.968 131.124 69.1627 130.911 69.424C130.697 69.6853 130.591 70.0133 130.591 70.408V76H129.343ZM144.74 76.16C144.201 76.16 143.727 76.0667 143.316 75.88C142.911 75.688 142.593 75.416 142.364 75.064C142.14 74.712 142.028 74.288 142.028 73.792C142.028 72.8747 142.343 72.1947 142.972 71.752C143.601 71.3093 144.617 71.0693 146.02 71.032L147.612 70.984V70.296C147.612 69.7573 147.449 69.328 147.124 69.008C146.799 68.6827 146.295 68.5227 145.612 68.528C145.1 68.528 144.655 68.648 144.276 68.888C143.903 69.1227 143.665 69.5013 143.564 70.024H142.428C142.46 69.5067 142.604 69.0667 142.86 68.704C143.121 68.336 143.489 68.056 143.964 67.864C144.439 67.6667 145.007 67.568 145.668 67.568C146.356 67.568 146.932 67.6693 147.396 67.872C147.865 68.0693 148.22 68.368 148.46 68.768C148.7 69.1627 148.82 69.6533 148.82 70.24V76H147.748L147.66 74.408C147.329 75.064 146.908 75.52 146.396 75.776C145.889 76.032 145.337 76.16 144.74 76.16ZM145.092 75.224C145.385 75.224 145.681 75.1707 145.98 75.064C146.279 74.9573 146.551 74.8107 146.796 74.624C147.041 74.4373 147.239 74.2293 147.388 74C147.537 73.7707 147.612 73.536 147.612 73.296V71.824L146.284 71.848C145.585 71.8587 145.012 71.928 144.564 72.056C144.116 72.184 143.785 72.3813 143.572 72.648C143.359 72.9093 143.252 73.2533 143.252 73.68C143.252 74.1653 143.423 74.544 143.764 74.816C144.105 75.088 144.548 75.224 145.092 75.224ZM151.249 76V67.728H152.449V68.936C152.587 68.696 152.777 68.4747 153.017 68.272C153.262 68.0693 153.558 67.9067 153.905 67.784C154.257 67.6613 154.651 67.6 155.089 67.6C155.622 67.6 156.107 67.7067 156.545 67.92C156.987 68.128 157.339 68.4533 157.601 68.896C157.862 69.3387 157.993 69.9067 157.993 70.6V76H156.745V70.712C156.745 70.008 156.566 69.488 156.209 69.152C155.851 68.816 155.379 68.648 154.793 68.648C154.393 68.648 154.017 68.712 153.665 68.84C153.313 68.968 153.03 69.1627 152.817 69.424C152.603 69.6853 152.497 70.0133 152.497 70.408V76H151.249ZM163.389 76.16C162.328 76.16 161.482 75.7973 160.853 75.072C160.224 74.3413 159.909 73.2613 159.909 71.832C159.909 70.9733 160.034 70.2267 160.285 69.592C160.536 68.952 160.912 68.456 161.413 68.104C161.92 67.7467 162.552 67.568 163.309 67.568C163.73 67.568 164.101 67.624 164.421 67.736C164.741 67.8427 165.013 67.9787 165.237 68.144C165.466 68.3093 165.648 68.4773 165.781 68.648C165.92 68.8187 166.021 68.9653 166.085 69.088V64.112H167.341V76H166.357L166.229 74.304C166.181 74.448 166.101 74.624 165.989 74.832C165.877 75.04 165.714 75.2453 165.501 75.448C165.288 75.6507 165.008 75.8213 164.661 75.96C164.32 76.0933 163.896 76.16 163.389 76.16ZM163.589 75.168C164.49 75.168 165.13 74.9013 165.509 74.368C165.893 73.8293 166.085 72.9573 166.085 71.752C166.074 71.0853 165.986 70.5147 165.821 70.04C165.661 69.5653 165.402 69.2027 165.045 68.952C164.693 68.696 164.218 68.568 163.621 68.568C162.896 68.568 162.306 68.824 161.853 69.336C161.4 69.848 161.173 70.6533 161.173 71.752C161.173 72.8187 161.376 73.656 161.781 74.264C162.186 74.8667 162.789 75.168 163.589 75.168ZM176.88 76.16C176.144 76.16 175.493 76 174.928 75.68C174.362 75.36 173.92 74.8827 173.6 74.248C173.285 73.6133 173.128 72.8267 173.128 71.888C173.128 71.0293 173.269 70.2773 173.552 69.632C173.84 68.9813 174.264 68.4747 174.824 68.112C175.384 67.7493 176.069 67.568 176.88 67.568C177.445 67.568 177.96 67.6747 178.424 67.888C178.888 68.1013 179.272 68.408 179.576 68.808C179.885 69.2027 180.08 69.68 180.16 70.24H179.024C178.97 69.9307 178.85 69.6533 178.664 69.408C178.477 69.1573 178.232 68.96 177.928 68.816C177.629 68.672 177.282 68.6 176.888 68.6C176.136 68.6 175.522 68.8693 175.048 69.408C174.573 69.9413 174.336 70.7653 174.336 71.88C174.336 72.8773 174.549 73.6773 174.976 74.28C175.408 74.8773 176.05 75.176 176.904 75.176C177.293 75.176 177.637 75.104 177.936 74.96C178.24 74.8107 178.485 74.6133 178.672 74.368C178.858 74.1173 178.978 73.8427 179.032 73.544H180.152C180.072 74.088 179.877 74.5573 179.568 74.952C179.264 75.3413 178.88 75.64 178.416 75.848C177.952 76.056 177.44 76.16 176.88 76.16ZM185.489 76.16C184.737 76.16 184.081 76 183.521 75.68C182.961 75.3547 182.526 74.8747 182.217 74.24C181.907 73.6053 181.753 72.824 181.753 71.896C181.753 71.032 181.894 70.2747 182.177 69.624C182.459 68.9733 182.878 68.4693 183.433 68.112C183.993 67.7493 184.678 67.568 185.489 67.568C186.235 67.568 186.886 67.7333 187.441 68.064C187.995 68.3893 188.425 68.8747 188.729 69.52C189.038 70.16 189.193 70.952 189.193 71.896C189.193 72.7387 189.051 73.48 188.769 74.12C188.491 74.76 188.078 75.2613 187.529 75.624C186.985 75.9813 186.305 76.16 185.489 76.16ZM185.489 75.152C186.006 75.152 186.449 75.024 186.817 74.768C187.185 74.512 187.465 74.1387 187.657 73.648C187.849 73.1573 187.945 72.5627 187.945 71.864C187.945 71.2347 187.859 70.672 187.689 70.176C187.523 69.68 187.259 69.2907 186.897 69.008C186.534 68.72 186.065 68.576 185.489 68.576C184.966 68.576 184.518 68.704 184.145 68.96C183.771 69.2107 183.486 69.5813 183.289 70.072C183.097 70.5627 183.001 71.16 183.001 71.864C183.001 72.4933 183.086 73.056 183.257 73.552C183.427 74.0427 183.697 74.432 184.065 74.72C184.433 75.008 184.907 75.152 185.489 75.152ZM191.249 76V67.728H192.449V68.936C192.667 68.568 192.971 68.248 193.361 67.976C193.755 67.704 194.273 67.568 194.913 67.568C195.222 67.568 195.534 67.6187 195.849 67.72C196.163 67.8213 196.451 67.9733 196.713 68.176C196.974 68.3787 197.174 68.6293 197.313 68.928C197.569 68.512 197.915 68.1813 198.353 67.936C198.79 67.6907 199.286 67.568 199.841 67.568C200.129 67.568 200.427 67.6107 200.737 67.696C201.051 67.7813 201.345 67.9333 201.617 68.152C201.889 68.3653 202.107 68.672 202.273 69.072C202.443 69.4667 202.529 69.976 202.529 70.6V76H201.281V70.712C201.281 70.1627 201.195 69.7413 201.025 69.448C200.854 69.1493 200.633 68.9413 200.361 68.824C200.089 68.7067 199.798 68.648 199.489 68.648C199.211 68.648 198.918 68.7013 198.609 68.808C198.305 68.9093 198.043 69.088 197.825 69.344C197.611 69.6 197.505 69.9547 197.505 70.408V76H196.257V70.216C196.257 69.8693 196.163 69.5813 195.977 69.352C195.795 69.1173 195.569 68.9413 195.297 68.824C195.025 68.7067 194.753 68.648 194.481 68.648C194.182 68.648 193.878 68.7067 193.569 68.824C193.265 68.9413 193.009 69.1307 192.801 69.392C192.598 69.6533 192.497 69.992 192.497 70.408V76H191.249ZM204.952 78.576V67.728H206.192L206.216 69.24C206.296 69.0747 206.408 68.896 206.552 68.704C206.701 68.512 206.888 68.3307 207.112 68.16C207.336 67.984 207.6 67.8427 207.904 67.736C208.213 67.624 208.568 67.568 208.968 67.568C209.64 67.568 210.232 67.7173 210.744 68.016C211.256 68.3147 211.653 68.7733 211.936 69.392C212.224 70.0107 212.368 70.7947 212.368 71.744C212.368 72.672 212.232 73.4667 211.96 74.128C211.693 74.784 211.301 75.288 210.784 75.64C210.267 75.9867 209.635 76.16 208.888 76.16C208.488 76.16 208.139 76.104 207.84 75.992C207.541 75.88 207.285 75.7333 207.072 75.552C206.859 75.3707 206.683 75.184 206.544 74.992C206.405 74.7947 206.293 74.608 206.208 74.432V78.576H204.952ZM208.68 75.16C209.411 75.16 210.003 74.8853 210.456 74.336C210.915 73.7867 211.144 72.9387 211.144 71.792C211.144 70.8107 210.936 70.0293 210.52 69.448C210.109 68.8613 209.496 68.568 208.68 68.568C207.869 68.568 207.251 68.864 206.824 69.456C206.403 70.048 206.192 70.8267 206.192 71.792C206.192 72.4213 206.285 72.992 206.472 73.504C206.664 74.0107 206.944 74.4133 207.312 74.712C207.68 75.0107 208.136 75.16 208.68 75.16ZM216.372 76.088C215.978 76.088 215.652 76.032 215.396 75.92C215.146 75.8027 214.948 75.6427 214.804 75.44C214.666 75.2373 214.57 75.0053 214.516 74.744C214.463 74.4827 214.436 74.208 214.436 73.92V64.112H215.668V73.816C215.668 74.2693 215.754 74.6027 215.924 74.816C216.095 75.024 216.319 75.136 216.596 75.152L217.06 75.16V75.976C216.943 76.0133 216.823 76.04 216.7 76.056C216.578 76.0773 216.468 76.088 216.372 76.088ZM222.22 76.16C221.462 76.16 220.793 75.9947 220.212 75.664C219.636 75.328 219.185 74.8453 218.86 74.216C218.534 73.5867 218.372 72.8293 218.372 71.944C218.372 71.064 218.518 70.296 218.812 69.64C219.105 68.9787 219.532 68.4693 220.092 68.112C220.652 67.7493 221.326 67.568 222.116 67.568C222.878 67.568 223.524 67.7333 224.052 68.064C224.58 68.3893 224.982 68.856 225.26 69.464C225.537 70.072 225.676 70.7973 225.676 71.64V72.152H219.652C219.646 72.7067 219.734 73.2107 219.916 73.664C220.102 74.1173 220.385 74.48 220.764 74.752C221.142 75.024 221.62 75.16 222.196 75.16C222.761 75.16 223.246 75.0293 223.652 74.768C224.057 74.5013 224.31 74.1253 224.412 73.64H225.612C225.51 74.1947 225.289 74.6587 224.948 75.032C224.606 75.4053 224.196 75.688 223.716 75.88C223.241 76.0667 222.742 76.16 222.22 76.16ZM219.66 71.264H224.46C224.46 70.752 224.374 70.2907 224.204 69.88C224.033 69.4693 223.772 69.144 223.42 68.904C223.073 68.664 222.633 68.544 222.1 68.544C221.54 68.544 221.078 68.68 220.716 68.952C220.353 69.2187 220.084 69.56 219.908 69.976C219.737 70.392 219.654 70.8213 219.66 71.264ZM230.309 76.032C229.781 76.032 229.37 75.9573 229.077 75.808C228.789 75.6587 228.586 75.4373 228.469 75.144C228.351 74.8507 228.293 74.4827 228.293 74.04V68.664H226.949V67.728H228.325L228.621 65.344H229.549V67.72H231.421V68.664H229.549V74C229.549 74.32 229.578 74.5547 229.637 74.704C229.701 74.848 229.81 74.9413 229.965 74.984C230.125 75.0213 230.346 75.04 230.629 75.04H231.477V75.904C231.375 75.9413 231.223 75.9733 231.021 76C230.823 76.0213 230.586 76.032 230.309 76.032ZM236.751 76.16C235.994 76.16 235.324 75.9947 234.743 75.664C234.167 75.328 233.716 74.8453 233.391 74.216C233.066 73.5867 232.903 72.8293 232.903 71.944C232.903 71.064 233.05 70.296 233.343 69.64C233.636 68.9787 234.063 68.4693 234.623 68.112C235.183 67.7493 235.858 67.568 236.647 67.568C237.41 67.568 238.055 67.7333 238.583 68.064C239.111 68.3893 239.514 68.856 239.791 69.464C240.068 70.072 240.207 70.7973 240.207 71.64V72.152H234.183C234.178 72.7067 234.266 73.2107 234.447 73.664C234.634 74.1173 234.916 74.48 235.295 74.752C235.674 75.024 236.151 75.16 236.727 75.16C237.292 75.16 237.778 75.0293 238.183 74.768C238.588 74.5013 238.842 74.1253 238.943 73.64H240.143C240.042 74.1947 239.82 74.6587 239.479 75.032C239.138 75.4053 238.727 75.688 238.247 75.88C237.772 76.0667 237.274 76.16 236.751 76.16ZM234.191 71.264H238.991C238.991 70.752 238.906 70.2907 238.735 69.88C238.564 69.4693 238.303 69.144 237.951 68.904C237.604 68.664 237.164 68.544 236.631 68.544C236.071 68.544 235.61 68.68 235.247 68.952C234.884 69.2187 234.615 69.56 234.439 69.976C234.268 70.392 234.186 70.8213 234.191 71.264ZM249.09 76.032C248.562 76.032 248.151 75.9573 247.858 75.808C247.57 75.6587 247.367 75.4373 247.25 75.144C247.133 74.8507 247.074 74.4827 247.074 74.04V68.664H245.73V67.728H247.106L247.402 65.344H248.33V67.72H250.202V68.664H248.33V74C248.33 74.32 248.359 74.5547 248.418 74.704C248.482 74.848 248.591 74.9413 248.746 74.984C248.906 75.0213 249.127 75.04 249.41 75.04H250.258V75.904C250.157 75.9413 250.005 75.9733 249.802 76C249.605 76.0213 249.367 76.032 249.09 76.032ZM252.311 76V64.112H253.519V68.944C253.663 68.7093 253.855 68.4907 254.095 68.288C254.341 68.0853 254.634 67.9227 254.975 67.8C255.322 67.672 255.717 67.608 256.159 67.608C256.703 67.608 257.191 67.7067 257.623 67.904C258.061 68.1013 258.407 68.3813 258.663 68.744C258.919 69.1067 259.047 69.5333 259.047 70.024V76H257.799V70.304C257.799 69.7813 257.621 69.376 257.263 69.088C256.906 68.7947 256.434 68.648 255.847 68.648C255.447 68.648 255.071 68.7147 254.719 68.848C254.373 68.976 254.093 69.1707 253.879 69.432C253.666 69.688 253.559 70.016 253.559 70.416V76H252.311ZM264.891 76.16C264.134 76.16 263.465 75.9947 262.884 75.664C262.308 75.328 261.857 74.8453 261.532 74.216C261.206 73.5867 261.044 72.8293 261.044 71.944C261.044 71.064 261.19 70.296 261.484 69.64C261.777 68.9787 262.204 68.4693 262.764 68.112C263.324 67.7493 263.998 67.568 264.788 67.568C265.55 67.568 266.196 67.7333 266.724 68.064C267.252 68.3893 267.654 68.856 267.932 69.464C268.209 70.072 268.348 70.7973 268.348 71.64V72.152H262.324C262.318 72.7067 262.406 73.2107 262.588 73.664C262.774 74.1173 263.057 74.48 263.436 74.752C263.814 75.024 264.292 75.16 264.868 75.16C265.433 75.16 265.918 75.0293 266.324 74.768C266.729 74.5013 266.982 74.1253 267.084 73.64H268.284C268.182 74.1947 267.961 74.6587 267.62 75.032C267.278 75.4053 266.868 75.688 266.388 75.88C265.913 76.0667 265.414 76.16 264.891 76.16ZM262.332 71.264H267.132C267.132 70.752 267.046 70.2907 266.876 69.88C266.705 69.4693 266.444 69.144 266.092 68.904C265.745 68.664 265.305 68.544 264.772 68.544C264.212 68.544 263.75 68.68 263.388 68.952C263.025 69.2187 262.756 69.56 262.58 69.976C262.409 70.392 262.326 70.8213 262.332 71.264ZM276.631 76.16C276.092 76.16 275.617 76.0667 275.207 75.88C274.801 75.688 274.484 75.416 274.255 75.064C274.031 74.712 273.919 74.288 273.919 73.792C273.919 72.8747 274.233 72.1947 274.863 71.752C275.492 71.3093 276.508 71.0693 277.911 71.032L279.503 70.984V70.296C279.503 69.7573 279.34 69.328 279.015 69.008C278.689 68.6827 278.185 68.5227 277.503 68.528C276.991 68.528 276.545 68.648 276.167 68.888C275.793 69.1227 275.556 69.5013 275.455 70.024H274.319C274.351 69.5067 274.495 69.0667 274.751 68.704C275.012 68.336 275.38 68.056 275.855 67.864C276.329 67.6667 276.897 67.568 277.559 67.568C278.247 67.568 278.823 67.6693 279.287 67.872C279.756 68.0693 280.111 68.368 280.351 68.768C280.591 69.1627 280.711 69.6533 280.711 70.24V76H279.639L279.551 74.408C279.22 75.064 278.799 75.52 278.287 75.776C277.78 76.032 277.228 76.16 276.631 76.16ZM276.983 75.224C277.276 75.224 277.572 75.1707 277.871 75.064C278.169 74.9573 278.441 74.8107 278.687 74.624C278.932 74.4373 279.129 74.2293 279.279 74C279.428 73.7707 279.503 73.536 279.503 73.296V71.824L278.175 71.848C277.476 71.8587 276.903 71.928 276.455 72.056C276.007 72.184 275.676 72.3813 275.463 72.648C275.249 72.9093 275.143 73.2533 275.143 73.68C275.143 74.1653 275.313 74.544 275.655 74.816C275.996 75.088 276.439 75.224 276.983 75.224ZM283.139 78.576V67.728H284.379L284.403 69.24C284.483 69.0747 284.595 68.896 284.739 68.704C284.889 68.512 285.075 68.3307 285.299 68.16C285.523 67.984 285.787 67.8427 286.091 67.736C286.401 67.624 286.755 67.568 287.155 67.568C287.827 67.568 288.419 67.7173 288.931 68.016C289.443 68.3147 289.841 68.7733 290.123 69.392C290.411 70.0107 290.555 70.7947 290.555 71.744C290.555 72.672 290.419 73.4667 290.147 74.128C289.881 74.784 289.489 75.288 288.971 75.64C288.454 75.9867 287.822 76.16 287.075 76.16C286.675 76.16 286.326 76.104 286.027 75.992C285.729 75.88 285.473 75.7333 285.259 75.552C285.046 75.3707 284.87 75.184 284.731 74.992C284.593 74.7947 284.481 74.608 284.395 74.432V78.576H283.139ZM286.867 75.16C287.598 75.16 288.19 74.8853 288.643 74.336C289.102 73.7867 289.331 72.9387 289.331 71.792C289.331 70.8107 289.123 70.0293 288.707 69.448C288.297 68.8613 287.683 68.568 286.867 68.568C286.057 68.568 285.438 68.864 285.011 69.456C284.59 70.048 284.379 70.8267 284.379 71.792C284.379 72.4213 284.473 72.992 284.659 73.504C284.851 74.0107 285.131 74.4133 285.499 74.712C285.867 75.0107 286.323 75.16 286.867 75.16ZM292.624 78.576V67.728H293.864L293.888 69.24C293.968 69.0747 294.08 68.896 294.224 68.704C294.373 68.512 294.56 68.3307 294.784 68.16C295.008 67.984 295.272 67.8427 295.576 67.736C295.885 67.624 296.24 67.568 296.64 67.568C297.312 67.568 297.904 67.7173 298.416 68.016C298.928 68.3147 299.325 68.7733 299.608 69.392C299.896 70.0107 300.04 70.7947 300.04 71.744C300.04 72.672 299.904 73.4667 299.632 74.128C299.365 74.784 298.973 75.288 298.456 75.64C297.938 75.9867 297.306 76.16 296.56 76.16C296.16 76.16 295.81 76.104 295.512 75.992C295.213 75.88 294.957 75.7333 294.744 75.552C294.53 75.3707 294.354 75.184 294.216 74.992C294.077 74.7947 293.965 74.608 293.88 74.432V78.576H292.624ZM296.352 75.16C297.082 75.16 297.674 74.8853 298.128 74.336C298.586 73.7867 298.816 72.9387 298.816 71.792C298.816 70.8107 298.608 70.0293 298.192 69.448C297.781 68.8613 297.168 68.568 296.352 68.568C295.541 68.568 294.922 68.864 294.496 69.456C294.074 70.048 293.864 70.8267 293.864 71.792C293.864 72.4213 293.957 72.992 294.144 73.504C294.336 74.0107 294.616 74.4133 294.984 74.712C295.352 75.0107 295.808 75.16 296.352 75.16ZM304.044 76.088C303.649 76.088 303.324 76.032 303.068 75.92C302.817 75.8027 302.62 75.6427 302.476 75.44C302.337 75.2373 302.241 75.0053 302.188 74.744C302.135 74.4827 302.108 74.208 302.108 73.92V64.112H303.34V73.816C303.34 74.2693 303.425 74.6027 303.596 74.816C303.767 75.024 303.991 75.136 304.268 75.152L304.732 75.16V75.976C304.615 76.0133 304.495 76.04 304.372 76.056C304.249 76.0773 304.14 76.088 304.044 76.088ZM306.82 76V67.728H308.036V76H306.82ZM306.764 65.816V64.44H308.076V65.816H306.764ZM313.895 76.16C313.159 76.16 312.509 76 311.943 75.68C311.378 75.36 310.935 74.8827 310.615 74.248C310.301 73.6133 310.143 72.8267 310.143 71.888C310.143 71.0293 310.285 70.2773 310.567 69.632C310.855 68.9813 311.279 68.4747 311.839 68.112C312.399 67.7493 313.085 67.568 313.895 67.568C314.461 67.568 314.975 67.6747 315.439 67.888C315.903 68.1013 316.287 68.408 316.591 68.808C316.901 69.2027 317.095 69.68 317.175 70.24H316.039C315.986 69.9307 315.866 69.6533 315.679 69.408C315.493 69.1573 315.247 68.96 314.943 68.816C314.645 68.672 314.298 68.6 313.903 68.6C313.151 68.6 312.538 68.8693 312.063 69.408C311.589 69.9413 311.351 70.7653 311.351 71.88C311.351 72.8773 311.565 73.6773 311.991 74.28C312.423 74.8773 313.066 75.176 313.919 75.176C314.309 75.176 314.653 75.104 314.951 74.96C315.255 74.8107 315.501 74.6133 315.687 74.368C315.874 74.1173 315.994 73.8427 316.047 73.544H317.167C317.087 74.088 316.893 74.5573 316.583 74.952C316.279 75.3413 315.895 75.64 315.431 75.848C314.967 76.056 314.455 76.16 313.895 76.16ZM321.506 76.16C320.967 76.16 320.492 76.0667 320.082 75.88C319.676 75.688 319.359 75.416 319.13 75.064C318.906 74.712 318.794 74.288 318.794 73.792C318.794 72.8747 319.108 72.1947 319.738 71.752C320.367 71.3093 321.383 71.0693 322.786 71.032L324.378 70.984V70.296C324.378 69.7573 324.215 69.328 323.89 69.008C323.564 68.6827 323.06 68.5227 322.378 68.528C321.866 68.528 321.42 68.648 321.042 68.888C320.668 69.1227 320.431 69.5013 320.33 70.024H319.194C319.226 69.5067 319.37 69.0667 319.626 68.704C319.887 68.336 320.255 68.056 320.73 67.864C321.204 67.6667 321.772 67.568 322.434 67.568C323.122 67.568 323.698 67.6693 324.162 67.872C324.631 68.0693 324.986 68.368 325.226 68.768C325.466 69.1627 325.586 69.6533 325.586 70.24V76H324.514L324.426 74.408C324.095 75.064 323.674 75.52 323.162 75.776C322.655 76.032 322.103 76.16 321.506 76.16ZM321.858 75.224C322.151 75.224 322.447 75.1707 322.746 75.064C323.044 74.9573 323.316 74.8107 323.562 74.624C323.807 74.4373 324.004 74.2293 324.154 74C324.303 73.7707 324.378 73.536 324.378 73.296V71.824L323.05 71.848C322.351 71.8587 321.778 71.928 321.33 72.056C320.882 72.184 320.551 72.3813 320.338 72.648C320.124 72.9093 320.018 73.2533 320.018 73.68C320.018 74.1653 320.188 74.544 320.53 74.816C320.871 75.088 321.314 75.224 321.858 75.224ZM330.543 76.032C330.015 76.032 329.604 75.9573 329.311 75.808C329.023 75.6587 328.82 75.4373 328.703 75.144C328.586 74.8507 328.527 74.4827 328.527 74.04V68.664H327.183V67.728H328.559L328.855 65.344H329.783V67.72H331.655V68.664H329.783V74C329.783 74.32 329.812 74.5547 329.871 74.704C329.935 74.848 330.044 74.9413 330.199 74.984C330.359 75.0213 330.58 75.04 330.863 75.04H331.711V75.904C331.61 75.9413 331.458 75.9733 331.255 76C331.058 76.0213 330.82 76.032 330.543 76.032ZM333.82 76V67.728H335.036V76H333.82ZM333.764 65.816V64.44H335.076V65.816H333.764ZM340.879 76.16C340.127 76.16 339.471 76 338.911 75.68C338.351 75.3547 337.917 74.8747 337.607 74.24C337.298 73.6053 337.143 72.824 337.143 71.896C337.143 71.032 337.285 70.2747 337.567 69.624C337.85 68.9733 338.269 68.4693 338.823 68.112C339.383 67.7493 340.069 67.568 340.879 67.568C341.626 67.568 342.277 67.7333 342.831 68.064C343.386 68.3893 343.815 68.8747 344.119 69.52C344.429 70.16 344.583 70.952 344.583 71.896C344.583 72.7387 344.442 73.48 344.159 74.12C343.882 74.76 343.469 75.2613 342.919 75.624C342.375 75.9813 341.695 76.16 340.879 76.16ZM340.879 75.152C341.397 75.152 341.839 75.024 342.207 74.768C342.575 74.512 342.855 74.1387 343.047 73.648C343.239 73.1573 343.335 72.5627 343.335 71.864C343.335 71.2347 343.25 70.672 343.079 70.176C342.914 69.68 342.65 69.2907 342.287 69.008C341.925 68.72 341.455 68.576 340.879 68.576C340.357 68.576 339.909 68.704 339.535 68.96C339.162 69.2107 338.877 69.5813 338.679 70.072C338.487 70.5627 338.391 71.16 338.391 71.864C338.391 72.4933 338.477 73.056 338.647 73.552C338.818 74.0427 339.087 74.432 339.455 74.72C339.823 75.008 340.298 75.152 340.879 75.152ZM346.639 76V67.728H347.839V68.936C347.978 68.696 348.167 68.4747 348.407 68.272C348.653 68.0693 348.949 67.9067 349.295 67.784C349.647 67.6613 350.042 67.6 350.479 67.6C351.013 67.6 351.498 67.7067 351.935 67.92C352.378 68.128 352.73 68.4533 352.991 68.896C353.253 69.3387 353.383 69.9067 353.383 70.6V76H352.135V70.712C352.135 70.008 351.957 69.488 351.599 69.152C351.242 68.816 350.77 68.648 350.183 68.648C349.783 68.648 349.407 68.712 349.055 68.84C348.703 68.968 348.421 69.1627 348.207 69.424C347.994 69.6853 347.887 70.0133 347.887 70.408V76H346.639ZM361.351 76L358.831 67.728H360.007L361.991 74.416H362.135L364.087 67.728H365.055L367.103 74.4H367.255L369.143 67.728H370.335L367.879 76H366.535L364.559 69.592L362.695 76H361.351ZM372.133 76V67.728H373.349V76H372.133ZM372.077 65.816V64.44H373.389V65.816H372.077ZM378.84 76.032C378.312 76.032 377.901 75.9573 377.608 75.808C377.32 75.6587 377.117 75.4373 377 75.144C376.883 74.8507 376.824 74.4827 376.824 74.04V68.664H375.48V67.728H376.856L377.152 65.344H378.08V67.72H379.952V68.664H378.08V74C378.08 74.32 378.109 74.5547 378.168 74.704C378.232 74.848 378.341 74.9413 378.496 74.984C378.656 75.0213 378.877 75.04 379.16 75.04H380.008V75.904C379.907 75.9413 379.755 75.9733 379.552 76C379.355 76.0213 379.117 76.032 378.84 76.032ZM382.061 76V64.112H383.269V68.944C383.413 68.7093 383.605 68.4907 383.845 68.288C384.091 68.0853 384.384 67.9227 384.725 67.8C385.072 67.672 385.467 67.608 385.909 67.608C386.453 67.608 386.941 67.7067 387.373 67.904C387.811 68.1013 388.157 68.3813 388.413 68.744C388.669 69.1067 388.797 69.5333 388.797 70.024V76H387.549V70.304C387.549 69.7813 387.371 69.376 387.013 69.088C386.656 68.7947 386.184 68.648 385.597 68.648C385.197 68.648 384.821 68.7147 384.469 68.848C384.123 68.976 383.843 69.1707 383.629 69.432C383.416 69.688 383.309 70.016 383.309 70.416V76H382.061ZM396.459 76.16C396.037 76.16 395.651 76.1067 395.299 76C394.947 75.8933 394.717 75.816 394.611 75.768L394.731 74.552C394.901 74.616 395.096 74.6987 395.315 74.8C395.533 74.896 395.816 74.944 396.163 74.944C396.68 74.944 397.037 74.8 397.235 74.512C397.432 74.2187 397.531 73.7253 397.531 73.032V64.432H398.779V73.4C398.779 73.9813 398.712 74.48 398.579 74.896C398.445 75.3067 398.211 75.6213 397.875 75.84C397.539 76.0533 397.067 76.16 396.459 76.16ZM401.383 76V67.728H402.599V76H401.383ZM401.327 65.816V64.44H402.639V65.816H401.327ZM405.311 76V67.728H406.511V68.936C406.65 68.696 406.839 68.4747 407.079 68.272C407.325 68.0693 407.621 67.9067 407.967 67.784C408.319 67.6613 408.714 67.6 409.151 67.6C409.685 67.6 410.17 67.7067 410.607 67.92C411.05 68.128 411.402 68.4533 411.663 68.896C411.925 69.3387 412.055 69.9067 412.055 70.6V76H410.807V70.712C410.807 70.008 410.629 69.488 410.271 69.152C409.914 68.816 409.442 68.648 408.855 68.648C408.455 68.648 408.079 68.712 407.727 68.84C407.375 68.968 407.093 69.1627 406.879 69.424C406.666 69.6853 406.559 70.0133 406.559 70.408V76H405.311ZM416.274 76L412.97 64.432H414.242L416.914 74.072L419.65 64.432H420.666L423.378 74.072L426.114 64.432H427.378L424.018 76H422.786L420.146 66.648L417.466 76H416.274ZM431.782 76.16C431.025 76.16 430.355 75.9947 429.774 75.664C429.198 75.328 428.747 74.8453 428.422 74.216C428.097 73.5867 427.934 72.8293 427.934 71.944C427.934 71.064 428.081 70.296 428.374 69.64C428.667 68.9787 429.094 68.4693 429.654 68.112C430.214 67.7493 430.889 67.568 431.678 67.568C432.441 67.568 433.086 67.7333 433.614 68.064C434.142 68.3893 434.545 68.856 434.822 69.464C435.099 70.072 435.238 70.7973 435.238 71.64V72.152H429.214C429.209 72.7067 429.297 73.2107 429.478 73.664C429.665 74.1173 429.947 74.48 430.326 74.752C430.705 75.024 431.182 75.16 431.758 75.16C432.323 75.16 432.809 75.0293 433.214 74.768C433.619 74.5013 433.873 74.1253 433.974 73.64H435.174C435.073 74.1947 434.851 74.6587 434.51 75.032C434.169 75.4053 433.758 75.688 433.278 75.88C432.803 76.0667 432.305 76.16 431.782 76.16ZM429.222 71.264H434.022C434.022 70.752 433.937 70.2907 433.766 69.88C433.595 69.4693 433.334 69.144 432.982 68.904C432.635 68.664 432.195 68.544 431.662 68.544C431.102 68.544 430.641 68.68 430.278 68.952C429.915 69.2187 429.646 69.56 429.47 69.976C429.299 70.392 429.217 70.8213 429.222 71.264ZM437.389 76V67.728H438.589V68.936C438.728 68.696 438.917 68.4747 439.157 68.272C439.403 68.0693 439.699 67.9067 440.045 67.784C440.397 67.6613 440.792 67.6 441.229 67.6C441.763 67.6 442.248 67.7067 442.685 67.92C443.128 68.128 443.48 68.4533 443.741 68.896C444.003 69.3387 444.133 69.9067 444.133 70.6V76H442.885V70.712C442.885 70.008 442.707 69.488 442.349 69.152C441.992 68.816 441.52 68.648 440.933 68.648C440.533 68.648 440.157 68.712 439.805 68.84C439.453 68.968 439.171 69.1627 438.957 69.424C438.744 69.6853 438.637 70.0133 438.637 70.408V76H437.389ZM450.811 76V64.432H454.627C455.448 64.432 456.179 64.5707 456.819 64.848C457.464 65.12 457.968 65.5253 458.331 66.064C458.699 66.5973 458.883 67.2587 458.883 68.048C458.883 68.8213 458.709 69.48 458.363 70.024C458.016 70.5627 457.536 70.9733 456.923 71.256C456.315 71.5387 455.608 71.68 454.803 71.68H452.107V76H450.811ZM452.099 70.584H454.779C455.627 70.584 456.315 70.352 456.843 69.888C457.376 69.424 457.643 68.7867 457.643 67.976C457.643 67.1547 457.371 66.5387 456.827 66.128C456.283 65.7173 455.571 65.512 454.691 65.512H452.099V70.584ZM462.771 76.16C462.232 76.16 461.758 76.0667 461.347 75.88C460.942 75.688 460.624 75.416 460.395 75.064C460.171 74.712 460.059 74.288 460.059 73.792C460.059 72.8747 460.374 72.1947 461.003 71.752C461.632 71.3093 462.648 71.0693 464.051 71.032L465.643 70.984V70.296C465.643 69.7573 465.48 69.328 465.155 69.008C464.83 68.6827 464.326 68.5227 463.643 68.528C463.131 68.528 462.686 68.648 462.307 68.888C461.934 69.1227 461.696 69.5013 461.595 70.024H460.459C460.491 69.5067 460.635 69.0667 460.891 68.704C461.152 68.336 461.52 68.056 461.995 67.864C462.47 67.6667 463.038 67.568 463.699 67.568C464.387 67.568 464.963 67.6693 465.427 67.872C465.896 68.0693 466.251 68.368 466.491 68.768C466.731 69.1627 466.851 69.6533 466.851 70.24V76H465.779L465.691 74.408C465.36 75.064 464.939 75.52 464.427 75.776C463.92 76.032 463.368 76.16 462.771 76.16ZM463.123 75.224C463.416 75.224 463.712 75.1707 464.011 75.064C464.31 74.9573 464.582 74.8107 464.827 74.624C465.072 74.4373 465.27 74.2293 465.419 74C465.568 73.7707 465.643 73.536 465.643 73.296V71.824L464.315 71.848C463.616 71.8587 463.043 71.928 462.595 72.056C462.147 72.184 461.816 72.3813 461.603 72.648C461.39 72.9093 461.283 73.2533 461.283 73.68C461.283 74.1653 461.454 74.544 461.795 74.816C462.136 75.088 462.579 75.224 463.123 75.224ZM472.09 76.16C471.514 76.16 470.983 76.072 470.498 75.896C470.018 75.7147 469.621 75.44 469.306 75.072C468.991 74.6987 468.797 74.224 468.722 73.648H469.882C469.951 73.9787 470.085 74.2587 470.282 74.488C470.485 74.7173 470.738 74.8933 471.042 75.016C471.351 75.1333 471.698 75.192 472.082 75.192C472.669 75.192 473.141 75.08 473.498 74.856C473.861 74.6267 474.042 74.2773 474.042 73.808C474.042 73.4827 473.949 73.2213 473.762 73.024C473.581 72.8267 473.301 72.6827 472.922 72.592L471.146 72.136C470.495 71.9707 469.975 71.7227 469.586 71.392C469.202 71.056 469.01 70.5893 469.01 69.992C469.01 69.5173 469.122 69.0987 469.346 68.736C469.575 68.3733 469.917 68.088 470.37 67.88C470.823 67.672 471.391 67.568 472.074 67.568C472.938 67.568 473.637 67.7627 474.17 68.152C474.709 68.5413 474.991 69.1227 475.018 69.896H473.89C473.837 69.4747 473.653 69.1413 473.338 68.896C473.029 68.6453 472.605 68.52 472.066 68.52C471.506 68.52 471.05 68.6347 470.698 68.864C470.346 69.0933 470.17 69.448 470.17 69.928C470.17 70.248 470.29 70.4987 470.53 70.68C470.775 70.856 471.127 71.0027 471.586 71.12L473.33 71.576C473.693 71.672 473.991 71.8 474.226 71.96C474.466 72.1147 474.655 72.2907 474.794 72.488C474.938 72.68 475.039 72.8853 475.098 73.104C475.157 73.3227 475.186 73.5333 475.186 73.736C475.186 74.232 475.066 74.6613 474.826 75.024C474.591 75.3867 474.242 75.6667 473.778 75.864C473.319 76.0613 472.757 76.16 472.09 76.16ZM480.09 76.16C479.514 76.16 478.983 76.072 478.498 75.896C478.018 75.7147 477.621 75.44 477.306 75.072C476.991 74.6987 476.797 74.224 476.722 73.648H477.882C477.951 73.9787 478.085 74.2587 478.282 74.488C478.485 74.7173 478.738 74.8933 479.042 75.016C479.351 75.1333 479.698 75.192 480.082 75.192C480.669 75.192 481.141 75.08 481.498 74.856C481.861 74.6267 482.042 74.2773 482.042 73.808C482.042 73.4827 481.949 73.2213 481.762 73.024C481.581 72.8267 481.301 72.6827 480.922 72.592L479.146 72.136C478.495 71.9707 477.975 71.7227 477.586 71.392C477.202 71.056 477.01 70.5893 477.01 69.992C477.01 69.5173 477.122 69.0987 477.346 68.736C477.575 68.3733 477.917 68.088 478.37 67.88C478.823 67.672 479.391 67.568 480.074 67.568C480.938 67.568 481.637 67.7627 482.17 68.152C482.709 68.5413 482.991 69.1227 483.018 69.896H481.89C481.837 69.4747 481.653 69.1413 481.338 68.896C481.029 68.6453 480.605 68.52 480.066 68.52C479.506 68.52 479.05 68.6347 478.698 68.864C478.346 69.0933 478.17 69.448 478.17 69.928C478.17 70.248 478.29 70.4987 478.53 70.68C478.775 70.856 479.127 71.0027 479.586 71.12L481.33 71.576C481.693 71.672 481.991 71.8 482.226 71.96C482.466 72.1147 482.655 72.2907 482.794 72.488C482.938 72.68 483.039 72.8853 483.098 73.104C483.157 73.3227 483.186 73.5333 483.186 73.736C483.186 74.232 483.066 74.6613 482.826 75.024C482.591 75.3867 482.242 75.6667 481.778 75.864C481.319 76.0613 480.757 76.16 480.09 76.16ZM485.218 78.576V67.728H486.458L486.482 69.24C486.562 69.0747 486.674 68.896 486.818 68.704C486.967 68.512 487.154 68.3307 487.378 68.16C487.602 67.984 487.866 67.8427 488.17 67.736C488.479 67.624 488.834 67.568 489.234 67.568C489.906 67.568 490.498 67.7173 491.01 68.016C491.522 68.3147 491.919 68.7733 492.201 69.392C492.49 70.0107 492.634 70.7947 492.634 71.744C492.634 72.672 492.498 73.4667 492.226 74.128C491.959 74.784 491.567 75.288 491.05 75.64C490.532 75.9867 489.9 76.16 489.154 76.16C488.754 76.16 488.404 76.104 488.106 75.992C487.807 75.88 487.551 75.7333 487.338 75.552C487.124 75.3707 486.948 75.184 486.81 74.992C486.671 74.7947 486.559 74.608 486.474 74.432V78.576H485.218ZM488.946 75.16C489.676 75.16 490.268 74.8853 490.722 74.336C491.18 73.7867 491.41 72.9387 491.41 71.792C491.41 70.8107 491.202 70.0293 490.786 69.448C490.375 68.8613 489.762 68.568 488.946 68.568C488.135 68.568 487.516 68.864 487.09 69.456C486.668 70.048 486.458 70.8267 486.458 71.792C486.458 72.4213 486.551 72.992 486.738 73.504C486.93 74.0107 487.21 74.4133 487.578 74.712C487.946 75.0107 488.402 75.16 488.946 75.16ZM497.942 76.16C497.19 76.16 496.534 76 495.974 75.68C495.414 75.3547 494.979 74.8747 494.67 74.24C494.361 73.6053 494.206 72.824 494.206 71.896C494.206 71.032 494.347 70.2747 494.63 69.624C494.913 68.9733 495.331 68.4693 495.886 68.112C496.446 67.7493 497.131 67.568 497.942 67.568C498.689 67.568 499.339 67.7333 499.894 68.064C500.449 68.3893 500.878 68.8747 501.182 69.52C501.491 70.16 501.646 70.952 501.646 71.896C501.646 72.7387 501.505 73.48 501.222 74.12C500.945 74.76 500.531 75.2613 499.982 75.624C499.438 75.9813 498.758 76.16 497.942 76.16ZM497.942 75.152C498.459 75.152 498.902 75.024 499.27 74.768C499.638 74.512 499.918 74.1387 500.11 73.648C500.302 73.1573 500.398 72.5627 500.398 71.864C500.398 71.2347 500.313 70.672 500.142 70.176C499.977 69.68 499.713 69.2907 499.35 69.008C498.987 68.72 498.518 68.576 497.942 68.576C497.419 68.576 496.971 68.704 496.598 68.96C496.225 69.2107 495.939 69.5813 495.742 70.072C495.55 70.5627 495.454 71.16 495.454 71.864C495.454 72.4933 495.539 73.056 495.71 73.552C495.881 74.0427 496.15 74.432 496.518 74.72C496.886 75.008 497.361 75.152 497.942 75.152ZM503.702 76V67.728H504.886V69.224C505.025 68.8347 505.219 68.52 505.47 68.28C505.726 68.0347 506.011 67.856 506.326 67.744C506.646 67.6267 506.969 67.568 507.294 67.568C507.427 67.568 507.558 67.5787 507.686 67.6C507.814 67.616 507.915 67.6453 507.99 67.688V68.904C507.905 68.8613 507.79 68.832 507.646 68.816C507.507 68.8 507.39 68.792 507.294 68.792C507.001 68.776 506.715 68.7973 506.438 68.856C506.161 68.9147 505.907 69.0187 505.678 69.168C505.454 69.3173 505.275 69.5173 505.142 69.768C505.014 70.0187 504.95 70.3253 504.95 70.688V76H503.702ZM512.465 76.032C511.937 76.032 511.526 75.9573 511.233 75.808C510.945 75.6587 510.742 75.4373 510.625 75.144C510.508 74.8507 510.449 74.4827 510.449 74.04V68.664H509.105V67.728H510.481L510.777 65.344H511.705V67.72H513.577V68.664H511.705V74C511.705 74.32 511.734 74.5547 511.793 74.704C511.857 74.848 511.966 74.9413 512.121 74.984C512.281 75.0213 512.502 75.04 512.785 75.04H513.633V75.904C513.532 75.9413 513.38 75.9733 513.177 76C512.98 76.0213 512.742 76.032 512.465 76.032ZM515.31 76V74.288H516.854V76H515.31Z" fill="#494F53"/>
<rect x="26.5" y="24.5" width="57" height="57" rx="9.5" stroke="#D2D7DC"/>
<path d="M65.9291 60.2176L57.2667 45.2092L56.3518 44.4695L55.5537 44.1386L54.6777 43.8271H53.2956L52.478 45.2092L60.6538 60.2176H65.9291Z" fill="#0960AF"/>
<path d="M44.0493 45.7824L52.7292 60.7806L53.6449 61.5193L54.4434 61.8493L55.3198 62.1597L56.7019 62.1581L57.5178 60.7751L49.3246 45.7762L44.0493 45.7824Z" fill="#FF782C"/>
<path d="M60.2437 61.3364L67.6419 45.5214L62.8727 45.5269L55.143 60.7778C54.3391 61.7381 53.7914 61.6057 52.7292 60.7806C54.522 65.1678 57.874 66.2506 60.2437 61.3364Z" fill="#FF782C"/>
<path d="M49.7525 44.6449L42.3359 60.4513H47.1051L54.8526 45.2094C55.6576 44.25 56.2052 44.3831 57.2664 45.2094C55.4787 40.8201 52.1279 39.7334 49.7525 44.6449Z" fill="#3190E6"/>
<path d="M886.358 59.277C886.318 59.3853 886.3 59.5006 886.304 59.616C886.309 59.7314 886.337 59.8447 886.386 59.9494C886.435 60.0541 886.504 60.1481 886.589 60.2259C886.674 60.3038 886.774 60.364 886.883 60.403L892.232 62.3499L873.564 71.0548C873.354 71.1528 873.191 71.3305 873.112 71.5485C873.032 71.7666 873.043 72.0073 873.141 72.2176C873.239 72.4279 873.417 72.5907 873.635 72.67C873.853 72.7494 874.093 72.7389 874.304 72.6408L892.955 63.9433L891.013 69.2611C890.935 69.4785 890.946 69.7182 891.044 69.9277C891.141 70.1372 891.318 70.2995 891.535 70.3792C891.752 70.4576 891.992 70.4468 892.201 70.3491C892.411 70.2514 892.573 70.0748 892.653 69.8578L895.345 62.4623C895.382 62.3656 895.4 62.2622 895.396 62.1585C895.393 62.0547 895.368 61.9527 895.325 61.8587C895.281 61.7646 895.218 61.6803 895.141 61.611C895.064 61.5417 894.973 61.4887 894.875 61.4552L887.484 58.7519C887.375 58.7119 887.26 58.6938 887.145 58.6986C887.029 58.7034 886.916 58.731 886.811 58.7798C886.707 58.8286 886.613 58.8977 886.535 58.983C886.457 59.0684 886.397 59.1683 886.358 59.277Z" fill="#1C2024"/>
</svg>
